<svg id="visual" viewBox="0 0 900 600" width="900" height="600" xmlns="http://www.w3.org/2000/svg" xmlns:xlink="http://www.w3.org/1999/xlink" version="1.1"><path d="M0 484L18.8 488.7C37.7 493.3 75.3 502.7 112.8 500.3C150.3 498 187.7 484 225.2 488.3C262.7 492.7 300.3 515.3 337.8 526.2C375.3 537 412.7 536 450.2 532.8C487.7 529.7 525.3 524.3 562.8 513.8C600.3 503.3 637.7 487.7 675.2 480.8C712.7 474 750.3 476 787.8 482.2C825.3 488.3 862.7 498.7 881.3 503.8L900 509L900 601L881.3 601C862.7 601 825.3 601 787.8 601C750.3 601 712.7 601 675.2 601C637.7 601 600.3 601 562.8 601C525.3 601 487.7 601 450.2 601C412.7 601 375.3 601 337.8 601C300.3 601 262.7 601 225.2 601C187.7 601 150.3 601 112.8 601C75.3 601 37.7 601 18.8 601L0 601Z" fill="#0066FF" stroke-linecap="round" stroke-linejoin="miter"></path></svg>